<?xml version="1.0" encoding="UTF-8"?>
<svg id="Layer_1" data-name="Layer 1" xmlns="http://www.w3.org/2000/svg" viewBox="0 0 357.08 298.63">
  <defs>
    <style>
      .cls-1 {
        fill: #121727;
      }
    </style>
  </defs>
  <path class="cls-1" d="M324.86,102.39l-29.33-75.66c-5.52-14.41-17.49-26.73-40.04-26.73H101.57c-22.55,0-34.52,12.32-40.04,26.73l-29.33,75.66C20.58,103.88,0,117.54,0,143.38v96.25H28.53v30.76c0,37.87,53.6,37.43,53.6,0v-30.76h192.82v30.76c0,37.43,53.6,37.87,53.6,0v-30.76h28.53v-96.25c0-25.84-20.6-39.5-32.22-40.99ZM56.18,181.63c-13.67,0-24.76-11.43-24.76-25.52s11.09-25.52,24.76-25.52,24.76,11.42,24.76,25.52-11.09,25.52-24.76,25.52Zm6.39-80l22.08-59.57c2.77-8.36,6.91-14.4,16.57-14.49H255.84c9.66,.09,13.8,6.13,16.57,14.49l22.08,59.57H62.57Zm238.31,80c-13.67,0-24.76-11.43-24.76-25.52s11.09-25.52,24.76-25.52,24.76,11.42,24.76,25.52-11.09,25.52-24.76,25.52Z"/>
</svg>